Coordinates
version=1
nRows=12
nColumns=24
inDegrees=yes

Units are S.I. units (second, meters, Newtons, ...)
Angles are in degrees.

endheader
time	pelvis_tilt	pelvis_list	pelvis_rotation	pelvis_tx	pelvis_ty	pelvis_tz	hip_flexion_r	hip_adduction_r	hip_rotation_r	knee_angle_r	ankle_angle_r	subtalar_angle_r	mtp_angle_r	hip_flexion_l	hip_adduction_l	hip_rotation_l	knee_angle_l	ankle_angle_l	subtalar_angle_l	mtp_angle_l	lumbar_extension	lumbar_bending	lumbar_rotation
      3.54000000	    -20.11970099	     11.54282922	     -5.77616431	     -2.24120598	     -0.04641835	     -0.26580593	     19.63074529	     -9.87028590	      2.33934901	    -59.88891906	    -38.68322679	    -11.51953120	     14.46900258	     45.37225495	     13.52711702	      0.57000780	    -27.92266373	     16.86361026	      9.18009811	    -72.77415334	     15.54146818	    -10.94146903	      7.24190880
      3.54500000	    -20.10606633	     11.47767029	     -5.69005092	     -2.23383719	     -0.04492819	     -0.26603290	     20.80245535	     -9.48731032	      2.71978324	    -61.22506129	    -37.16584249	    -13.36670493	     14.13401892	     44.55980980	     13.56087905	      0.42595878	    -27.58015965	     17.51316823	      9.76600542	    -72.72821513	     15.47717486	    -10.84530610	      7.04626265
      3.55000000	    -20.15479696	     11.33673234	     -5.50653613	     -2.22643042	     -0.04348915	     -0.26628645	     22.02113550	     -9.03534243	      2.94062687	    -62.59488304	    -34.93212598	    -14.65798951	     11.32636484	     43.78844470	     13.58538471	      0.42646085	    -27.23874895	     18.19096226	     10.34890053	    -72.92532921	     15.46749548	    -10.69901215	      6.70253436
      3.55500000	    -20.07883926	     11.26800401	     -5.43820868	     -2.21908526	     -0.04183175	     -0.26644868	     23.13206175	     -8.63368236	      3.29896710	    -63.78773778	    -33.06381412	    -16.03687445	      9.50392986	     42.85390421	     13.64270870	      0.43349638	    -26.78702139	     18.74837716	     10.75396390	    -73.04355855	     15.34109801	    -10.60629319	      6.52010997
      3.56000000	    -20.02655440	     11.19344873	     -5.36528817	     -2.21167877	     -0.04012383	     -0.26663315	     24.23858709	     -8.21976943	      3.66331934	    -64.84813729	    -31.21151032	    -17.22947223	      7.58103841	     41.89520586	     13.72135103	      0.57214125	    -26.24832485	     19.19639814	     10.98768215	    -73.11567742	     15.25712862	    -10.49933639	      6.34391696
      3.56500000	    -19.94995038	     11.07914752	     -5.24438581	     -2.20422446	     -0.03836417	     -0.26688891	     25.26507166	     -7.80317883	      3.93076908	    -65.78182464	    -29.30428322	    -18.23181476	      5.39647411	     40.89623503	     13.80994876	      0.74799117	    -25.69902787	     19.56487437	     11.12418989	    -73.15044684	     15.14346372	    -10.36415325	      6.10516455
      3.57000000	    -19.85842991	     10.97215112	     -5.14682577	     -2.19679414	     -0.03656675	     -0.26713616	     26.26943579	     -7.39264085	      4.22690791	    -66.59755938	    -27.56666336	    -19.12378660	      3.47775650	     39.84937384	     13.90850236	      1.02845082	    -25.08135730	     19.86678931	     11.15725443	    -73.12621214	     15.01771259	    -10.22944243	      5.89895911
      3.57500000	    -19.76536970	     10.83815338	     -5.06139336	     -2.18939920	     -0.03475555	     -0.26736434	     27.25368135	     -6.95513855	      4.51371439	    -67.30038082	    -25.93466535	    -19.89555223	      1.66059071	     38.78243297	     13.98199724	      1.37975184	    -24.43154625	     20.12004272	     11.10845035	    -73.06137891	     14.88881242	    -10.06517423	      5.71209820
      3.58000000	    -19.65667352	     10.70282376	     -4.96448190	     -2.18200352	     -0.03293699	     -0.26763201	     28.19179002	     -6.54695907	      4.76787418	    -67.87843308	    -24.43585119	    -20.59779728	      0.28814958	     37.67652771	     14.06973711	      1.78891656	    -23.73675553	     20.31252933	     10.98013759	    -72.97877383	     14.74359447	     -9.90248568	      5.52697172
      3.58500000	    -19.58896742	     10.59267157	     -4.92258813	     -2.17462323	     -0.03113037	     -0.26779825	     29.16926167	     -6.12883635	      5.11010229	    -68.31473387	    -23.30504360	    -21.37316811	     -0.16547835	     36.58110553	     14.13204115	      2.18537554	    -22.95252154	     20.43272362	     10.79735332	    -72.93033878	     14.66316790	     -9.74919571	      5.36834586
      3.59000000	    -19.45673213	     10.38582339	     -4.81019541	     -2.16721360	     -0.02924986	     -0.26809043	     29.99644387	     -5.69099054	      5.30289816	    -68.62420238	    -21.95759837	    -21.82169401	     -0.78426578	     35.38163490	     14.17078647	      2.77381576	    -22.15252820	     20.52745806	     10.52256881	    -72.85392697	     14.49171847	     -9.52022175	      5.13207246
      3.59500000	    -19.35716779	     10.16325364	     -4.71779750	     -2.15985538	     -0.02743119	     -0.26830065	     30.84757878	     -5.22973138	      5.47698998	    -68.83779206	    -20.63523907	    -22.21851709	     -1.41952413	     34.21232370	     14.15754738	      3.33495906	    -21.33303358	     20.59059160	     10.25002588	    -72.74941634	     14.35734399	     -9.27487637	      4.93209792
